<svg width="244" height="23" viewBox="0 0 244 23" fill="none" xmlns="http://www.w3.org/2000/svg">
<path d="M43.4609 3.78125V18H40.7852V3.78125H43.4609ZM47.875 3.78125V5.90039H36.4199V3.78125H47.875ZM51.9961 3V18H49.4082V3H51.9961ZM51.5859 12.3359H50.8242C50.8242 11.6003 50.9219 10.9232 51.1172 10.3047C51.3125 9.6862 51.5892 9.14909 51.9473 8.69336C52.3053 8.23112 52.7318 7.87305 53.2266 7.61914C53.7279 7.36523 54.2812 7.23828 54.8867 7.23828C55.4076 7.23828 55.8796 7.31315 56.3027 7.46289C56.7324 7.60612 57.1003 7.83724 57.4062 8.15625C57.7122 8.47526 57.9466 8.89193 58.1094 9.40625C58.2786 9.91406 58.3633 10.5326 58.3633 11.2617V18H55.7656V11.2422C55.7656 10.7539 55.694 10.3698 55.5508 10.0898C55.4076 9.80339 55.2025 9.59831 54.9355 9.47461C54.6751 9.35091 54.3529 9.28906 53.9688 9.28906C53.5521 9.28906 53.194 9.37044 52.8945 9.5332C52.5951 9.68945 52.3477 9.90755 52.1523 10.1875C51.9635 10.4674 51.8203 10.7897 51.7227 11.1543C51.6315 11.5189 51.5859 11.9128 51.5859 12.3359ZM66.9277 15.4902V7.43359H69.5254V18H67.084L66.9277 15.4902ZM67.2598 13.3027L68.0605 13.2832C68.0605 13.9928 67.9824 14.6471 67.8262 15.2461C67.6699 15.8451 67.4258 16.3659 67.0938 16.8086C66.7682 17.2448 66.3548 17.5866 65.8535 17.834C65.3522 18.0749 64.7598 18.1953 64.0762 18.1953C63.5553 18.1953 63.0801 18.1237 62.6504 17.9805C62.2207 17.8307 61.8496 17.5996 61.5371 17.2871C61.2311 16.9681 60.9935 16.5612 60.8242 16.0664C60.6549 15.5651 60.5703 14.9629 60.5703 14.2598V7.43359H63.1484V14.2793C63.1484 14.6309 63.1875 14.9238 63.2656 15.1582C63.3503 15.3926 63.4642 15.5846 63.6074 15.7344C63.7572 15.8776 63.9297 15.9818 64.125 16.0469C64.3268 16.1055 64.5417 16.1348 64.7695 16.1348C65.3945 16.1348 65.8861 16.0111 66.2441 15.7637C66.6087 15.5098 66.8691 15.1712 67.0254 14.748C67.1816 14.3184 67.2598 13.8366 67.2598 13.3027ZM74.3789 9.60156V18H71.8008V7.43359H74.2324L74.3789 9.60156ZM73.998 12.3359H73.207C73.207 11.6003 73.2949 10.9232 73.4707 10.3047C73.653 9.6862 73.9199 9.14909 74.2715 8.69336C74.623 8.23112 75.056 7.87305 75.5703 7.61914C76.0911 7.36523 76.6934 7.23828 77.377 7.23828C77.8522 7.23828 78.2884 7.3099 78.6855 7.45312C79.0827 7.58984 79.4245 7.80794 79.7109 8.10742C80.0039 8.40039 80.2285 8.78451 80.3848 9.25977C80.541 9.72852 80.6191 10.2917 80.6191 10.9492V18H78.041V11.2129C78.041 10.7181 77.9694 10.3307 77.8262 10.0508C77.6895 9.77083 77.4909 9.57552 77.2305 9.46484C76.9701 9.34766 76.6576 9.28906 76.293 9.28906C75.8893 9.28906 75.541 9.37044 75.248 9.5332C74.9616 9.68945 74.724 9.90755 74.5352 10.1875C74.3529 10.4674 74.2161 10.7897 74.125 11.1543C74.0404 11.5189 73.998 11.9128 73.998 12.3359ZM80.4238 11.8574L79.3594 12.0527C79.3659 11.3887 79.457 10.7669 79.6328 10.1875C79.8086 9.60156 80.0658 9.09049 80.4043 8.6543C80.7493 8.21159 81.1758 7.86654 81.6836 7.61914C82.1979 7.36523 82.7904 7.23828 83.4609 7.23828C83.9818 7.23828 84.4505 7.31315 84.8672 7.46289C85.2904 7.60612 85.6517 7.83724 85.9512 8.15625C86.2507 8.46875 86.4785 8.87565 86.6348 9.37695C86.7975 9.87826 86.8789 10.4902 86.8789 11.2129V18H84.2812V11.2031C84.2812 10.6888 84.2096 10.2949 84.0664 10.0215C83.9297 9.74805 83.7311 9.55924 83.4707 9.45508C83.2103 9.3444 82.9043 9.28906 82.5527 9.28906C82.1947 9.28906 81.8822 9.35742 81.6152 9.49414C81.3548 9.62435 81.1335 9.80664 80.9512 10.041C80.7754 10.2754 80.6419 10.5488 80.5508 10.8613C80.4661 11.1673 80.4238 11.4993 80.4238 11.8574ZM89.1836 3H91.7715V15.666L91.5176 18H89.1836V3ZM98.5684 12.6094V12.8145C98.5684 13.6022 98.4805 14.3249 98.3047 14.9824C98.1354 15.64 97.8783 16.2096 97.5332 16.6914C97.1882 17.1667 96.7585 17.5378 96.2441 17.8047C95.7363 18.0651 95.1406 18.1953 94.457 18.1953C93.806 18.1953 93.2396 18.0684 92.7578 17.8145C92.2826 17.5605 91.8822 17.2025 91.5566 16.7402C91.2311 16.2715 90.9707 15.7214 90.7754 15.0898C90.5801 14.4518 90.4336 13.7552 90.3359 13V12.4434C90.4336 11.6816 90.5801 10.985 90.7754 10.3535C90.9707 9.72201 91.2311 9.17188 91.5566 8.70312C91.8822 8.23438 92.2826 7.87305 92.7578 7.61914C93.2331 7.36523 93.793 7.23828 94.4375 7.23828C95.1276 7.23828 95.7298 7.37174 96.2441 7.63867C96.765 7.89909 97.1947 8.27018 97.5332 8.75195C97.8783 9.22721 98.1354 9.79362 98.3047 10.4512C98.4805 11.1022 98.5684 11.8216 98.5684 12.6094ZM95.9805 12.8145V12.6094C95.9805 12.1602 95.9447 11.737 95.873 11.3398C95.8014 10.9362 95.6842 10.5814 95.5215 10.2754C95.3587 9.9694 95.1374 9.72852 94.8574 9.55273C94.5775 9.37695 94.2259 9.28906 93.8027 9.28906C93.3991 9.28906 93.054 9.35742 92.7676 9.49414C92.4876 9.63086 92.2533 9.81966 92.0645 10.0605C91.8822 10.3014 91.7389 10.5846 91.6348 10.9102C91.5371 11.2357 91.472 11.5872 91.4395 11.9648V13.4883C91.485 13.9896 91.5924 14.4421 91.7617 14.8457C91.931 15.2428 92.1816 15.5586 92.5137 15.793C92.8522 16.0273 93.2884 16.1445 93.8223 16.1445C94.2389 16.1445 94.5872 16.0632 94.8672 15.9004C95.1471 15.7311 95.3685 15.4967 95.5312 15.1973C95.694 14.8913 95.8079 14.5365 95.873 14.1328C95.9447 13.7292 95.9805 13.2897 95.9805 12.8145ZM102.973 9.68945V18H100.395V7.43359H102.816L102.973 9.68945ZM102.562 12.3359H101.801C101.807 11.5677 101.911 10.8711 102.113 10.2461C102.315 9.62109 102.598 9.08398 102.963 8.63477C103.334 8.18555 103.773 7.84049 104.281 7.59961C104.789 7.35872 105.355 7.23828 105.98 7.23828C106.488 7.23828 106.947 7.3099 107.357 7.45312C107.768 7.59635 108.119 7.82422 108.412 8.13672C108.712 8.44922 108.939 8.85938 109.096 9.36719C109.258 9.86849 109.34 10.487 109.34 11.2227V18H106.742V11.2031C106.742 10.7214 106.671 10.3405 106.527 10.0605C106.391 9.7806 106.189 9.58203 105.922 9.46484C105.661 9.34766 105.339 9.28906 104.955 9.28906C104.558 9.28906 104.21 9.37044 103.91 9.5332C103.617 9.68945 103.37 9.90755 103.168 10.1875C102.973 10.4674 102.823 10.7897 102.719 11.1543C102.615 11.5189 102.562 11.9128 102.562 12.3359ZM117.436 15.7539V10.8809C117.436 10.5228 117.374 10.2135 117.25 9.95312C117.126 9.69271 116.938 9.49089 116.684 9.34766C116.43 9.20443 116.107 9.13281 115.717 9.13281C115.372 9.13281 115.069 9.19141 114.809 9.30859C114.555 9.42578 114.359 9.5918 114.223 9.80664C114.086 10.015 114.018 10.2559 114.018 10.5293H111.43C111.43 10.0931 111.534 9.67969 111.742 9.28906C111.951 8.89193 112.247 8.54036 112.631 8.23438C113.021 7.92188 113.487 7.67773 114.027 7.50195C114.574 7.32617 115.186 7.23828 115.863 7.23828C116.664 7.23828 117.377 7.375 118.002 7.64844C118.633 7.91536 119.128 8.31901 119.486 8.85938C119.851 9.39974 120.033 10.0801 120.033 10.9004V15.5098C120.033 16.0371 120.066 16.4896 120.131 16.8672C120.202 17.2383 120.307 17.5605 120.443 17.834V18H117.816C117.693 17.7331 117.598 17.3945 117.533 16.9844C117.468 16.5677 117.436 16.1576 117.436 15.7539ZM117.797 11.5645L117.816 13.0977H116.186C115.782 13.0977 115.427 13.14 115.121 13.2246C114.815 13.3027 114.564 13.4199 114.369 13.5762C114.174 13.7259 114.027 13.9082 113.93 14.123C113.832 14.3314 113.783 14.569 113.783 14.8359C113.783 15.0964 113.842 15.3307 113.959 15.5391C114.083 15.7474 114.258 15.9134 114.486 16.0371C114.721 16.1543 114.994 16.2129 115.307 16.2129C115.762 16.2129 116.16 16.1217 116.498 15.9395C116.837 15.7507 117.1 15.5228 117.289 15.2559C117.478 14.9889 117.579 14.735 117.592 14.4941L118.334 15.6074C118.243 15.8743 118.106 16.1576 117.924 16.457C117.742 16.7565 117.507 17.0365 117.221 17.2969C116.934 17.5573 116.589 17.7721 116.186 17.9414C115.782 18.1107 115.313 18.1953 114.779 18.1953C114.096 18.1953 113.484 18.0586 112.943 17.7852C112.403 17.5117 111.977 17.1374 111.664 16.6621C111.352 16.1868 111.195 15.6465 111.195 15.041C111.195 14.4811 111.299 13.9863 111.508 13.5566C111.716 13.127 112.025 12.7656 112.436 12.4727C112.846 12.1732 113.354 11.9486 113.959 11.7988C114.571 11.6426 115.271 11.5645 116.059 11.5645H117.797ZM125.092 7.43359V18H122.504V7.43359H125.092ZM122.328 4.66992C122.328 4.28581 122.458 3.9668 122.719 3.71289C122.986 3.45898 123.344 3.33203 123.793 3.33203C124.242 3.33203 124.597 3.45898 124.857 3.71289C125.124 3.9668 125.258 4.28581 125.258 4.66992C125.258 5.04753 125.124 5.36328 124.857 5.61719C124.597 5.87109 124.242 5.99805 123.793 5.99805C123.344 5.99805 122.986 5.87109 122.719 5.61719C122.458 5.36328 122.328 5.04753 122.328 4.66992ZM130.287 3V18H127.699V3H130.287ZM142.172 18H139.105L139.125 15.8906H142.172C142.999 15.8906 143.692 15.7083 144.252 15.3438C144.812 14.9727 145.235 14.4421 145.521 13.752C145.808 13.0553 145.951 12.222 145.951 11.252V10.5195C145.951 9.77083 145.87 9.11003 145.707 8.53711C145.544 7.96419 145.303 7.48242 144.984 7.0918C144.672 6.70117 144.285 6.40495 143.822 6.20312C143.36 6.0013 142.829 5.90039 142.23 5.90039H139.047V3.78125H142.23C143.181 3.78125 144.047 3.94076 144.828 4.25977C145.616 4.57878 146.296 5.03776 146.869 5.63672C147.449 6.22917 147.891 6.9388 148.197 7.76562C148.51 8.59245 148.666 9.51693 148.666 10.5391V11.252C148.666 12.2676 148.51 13.1921 148.197 14.0254C147.891 14.8522 147.449 15.5618 146.869 16.1543C146.296 16.7467 145.613 17.2025 144.818 17.5215C144.024 17.8405 143.142 18 142.172 18ZM140.609 3.78125V18H137.924V3.78125H140.609ZM150.297 12.8242V12.6191C150.297 11.8444 150.408 11.1315 150.629 10.4805C150.85 9.82292 151.173 9.25326 151.596 8.77148C152.019 8.28971 152.536 7.91536 153.148 7.64844C153.76 7.375 154.457 7.23828 155.238 7.23828C156.033 7.23828 156.736 7.375 157.348 7.64844C157.966 7.91536 158.487 8.28971 158.91 8.77148C159.333 9.25326 159.656 9.82292 159.877 10.4805C160.098 11.1315 160.209 11.8444 160.209 12.6191V12.8242C160.209 13.5924 160.098 14.3053 159.877 14.9629C159.656 15.6139 159.333 16.1836 158.91 16.6719C158.487 17.1536 157.969 17.528 157.357 17.7949C156.745 18.0618 156.046 18.1953 155.258 18.1953C154.477 18.1953 153.777 18.0618 153.158 17.7949C152.54 17.528 152.019 17.1536 151.596 16.6719C151.173 16.1836 150.85 15.6139 150.629 14.9629C150.408 14.3053 150.297 13.5924 150.297 12.8242ZM152.875 12.6191V12.8242C152.875 13.2865 152.921 13.7194 153.012 14.123C153.103 14.5267 153.243 14.8815 153.432 15.1875C153.62 15.4935 153.865 15.7344 154.164 15.9102C154.47 16.0794 154.835 16.1641 155.258 16.1641C155.674 16.1641 156.033 16.0794 156.332 15.9102C156.632 15.7344 156.876 15.4935 157.064 15.1875C157.26 14.8815 157.403 14.5267 157.494 14.123C157.585 13.7194 157.631 13.2865 157.631 12.8242V12.6191C157.631 12.1634 157.585 11.737 157.494 11.3398C157.403 10.9362 157.26 10.5814 157.064 10.2754C156.876 9.96289 156.628 9.71875 156.322 9.54297C156.023 9.36068 155.661 9.26953 155.238 9.26953C154.822 9.26953 154.464 9.36068 154.164 9.54297C153.865 9.71875 153.62 9.96289 153.432 10.2754C153.243 10.5814 153.103 10.9362 153.012 11.3398C152.921 11.737 152.875 12.1634 152.875 12.6191ZM165.023 15.4609L167.338 7.43359H168.979L168.49 10.207L166.156 18H164.74L165.023 15.4609ZM163.744 7.43359L165.482 15.4805L165.639 18H164.008L161.234 7.43359H163.744ZM171.127 15.3633L172.826 7.43359H175.326L172.572 18H170.941L171.127 15.3633ZM169.232 7.43359L171.527 15.3828L171.83 18H170.414L168.061 10.207L167.582 7.43359H169.232ZM179.379 9.68945V18H176.801V7.43359H179.223L179.379 9.68945ZM178.969 12.3359H178.207C178.214 11.5677 178.318 10.8711 178.52 10.2461C178.721 9.62109 179.005 9.08398 179.369 8.63477C179.74 8.18555 180.18 7.84049 180.688 7.59961C181.195 7.35872 181.762 7.23828 182.387 7.23828C182.895 7.23828 183.354 7.3099 183.764 7.45312C184.174 7.59635 184.525 7.82422 184.818 8.13672C185.118 8.44922 185.346 8.85938 185.502 9.36719C185.665 9.86849 185.746 10.487 185.746 11.2227V18H183.148V11.2031C183.148 10.7214 183.077 10.3405 182.934 10.0605C182.797 9.7806 182.595 9.58203 182.328 9.46484C182.068 9.34766 181.745 9.28906 181.361 9.28906C180.964 9.28906 180.616 9.37044 180.316 9.5332C180.023 9.68945 179.776 9.90755 179.574 10.1875C179.379 10.4674 179.229 10.7897 179.125 11.1543C179.021 11.5189 178.969 11.9128 178.969 12.3359ZM190.756 3V18H188.168V3H190.756ZM192.758 12.8242V12.6191C192.758 11.8444 192.868 11.1315 193.09 10.4805C193.311 9.82292 193.633 9.25326 194.057 8.77148C194.48 8.28971 194.997 7.91536 195.609 7.64844C196.221 7.375 196.918 7.23828 197.699 7.23828C198.493 7.23828 199.197 7.375 199.809 7.64844C200.427 7.91536 200.948 8.28971 201.371 8.77148C201.794 9.25326 202.117 9.82292 202.338 10.4805C202.559 11.1315 202.67 11.8444 202.67 12.6191V12.8242C202.67 13.5924 202.559 14.3053 202.338 14.9629C202.117 15.6139 201.794 16.1836 201.371 16.6719C200.948 17.1536 200.43 17.528 199.818 17.7949C199.206 18.0618 198.507 18.1953 197.719 18.1953C196.938 18.1953 196.238 18.0618 195.619 17.7949C195.001 17.528 194.48 17.1536 194.057 16.6719C193.633 16.1836 193.311 15.6139 193.09 14.9629C192.868 14.3053 192.758 13.5924 192.758 12.8242ZM195.336 12.6191V12.8242C195.336 13.2865 195.382 13.7194 195.473 14.123C195.564 14.5267 195.704 14.8815 195.893 15.1875C196.081 15.4935 196.326 15.7344 196.625 15.9102C196.931 16.0794 197.296 16.1641 197.719 16.1641C198.135 16.1641 198.493 16.0794 198.793 15.9102C199.092 15.7344 199.337 15.4935 199.525 15.1875C199.721 14.8815 199.864 14.5267 199.955 14.123C200.046 13.7194 200.092 13.2865 200.092 12.8242V12.6191C200.092 12.1634 200.046 11.737 199.955 11.3398C199.864 10.9362 199.721 10.5814 199.525 10.2754C199.337 9.96289 199.089 9.71875 198.783 9.54297C198.484 9.36068 198.122 9.26953 197.699 9.26953C197.283 9.26953 196.924 9.36068 196.625 9.54297C196.326 9.71875 196.081 9.96289 195.893 10.2754C195.704 10.5814 195.564 10.9362 195.473 11.3398C195.382 11.737 195.336 12.1634 195.336 12.6191ZM210.365 15.7539V10.8809C210.365 10.5228 210.303 10.2135 210.18 9.95312C210.056 9.69271 209.867 9.49089 209.613 9.34766C209.359 9.20443 209.037 9.13281 208.646 9.13281C208.301 9.13281 207.999 9.19141 207.738 9.30859C207.484 9.42578 207.289 9.5918 207.152 9.80664C207.016 10.015 206.947 10.2559 206.947 10.5293H204.359C204.359 10.0931 204.464 9.67969 204.672 9.28906C204.88 8.89193 205.176 8.54036 205.561 8.23438C205.951 7.92188 206.417 7.67773 206.957 7.50195C207.504 7.32617 208.116 7.23828 208.793 7.23828C209.594 7.23828 210.307 7.375 210.932 7.64844C211.563 7.91536 212.058 8.31901 212.416 8.85938C212.781 9.39974 212.963 10.0801 212.963 10.9004V15.5098C212.963 16.0371 212.995 16.4896 213.061 16.8672C213.132 17.2383 213.236 17.5605 213.373 17.834V18H210.746C210.622 17.7331 210.528 17.3945 210.463 16.9844C210.398 16.5677 210.365 16.1576 210.365 15.7539ZM210.727 11.5645L210.746 13.0977H209.115C208.712 13.0977 208.357 13.14 208.051 13.2246C207.745 13.3027 207.494 13.4199 207.299 13.5762C207.104 13.7259 206.957 13.9082 206.859 14.123C206.762 14.3314 206.713 14.569 206.713 14.8359C206.713 15.0964 206.771 15.3307 206.889 15.5391C207.012 15.7474 207.188 15.9134 207.416 16.0371C207.65 16.1543 207.924 16.2129 208.236 16.2129C208.692 16.2129 209.089 16.1217 209.428 15.9395C209.766 15.7507 210.03 15.5228 210.219 15.2559C210.408 14.9889 210.508 14.735 210.521 14.4941L211.264 15.6074C211.173 15.8743 211.036 16.1576 210.854 16.457C210.671 16.7565 210.437 17.0365 210.15 17.2969C209.864 17.5573 209.519 17.7721 209.115 17.9414C208.712 18.1107 208.243 18.1953 207.709 18.1953C207.025 18.1953 206.413 18.0586 205.873 17.7852C205.333 17.5117 204.906 17.1374 204.594 16.6621C204.281 16.1868 204.125 15.6465 204.125 15.041C204.125 14.4811 204.229 13.9863 204.438 13.5566C204.646 13.127 204.955 12.7656 205.365 12.4727C205.775 12.1732 206.283 11.9486 206.889 11.7988C207.501 11.6426 208.201 11.5645 208.988 11.5645H210.727ZM221.625 15.7539V3H224.223V18H221.879L221.625 15.7539ZM214.838 12.8438V12.6387C214.838 11.8314 214.929 11.099 215.111 10.4414C215.3 9.77734 215.574 9.20768 215.932 8.73242C216.29 8.25716 216.723 7.88932 217.23 7.62891C217.745 7.36849 218.327 7.23828 218.979 7.23828C219.61 7.23828 220.16 7.36523 220.629 7.61914C221.104 7.87305 221.508 8.23438 221.84 8.70312C222.178 9.17188 222.449 9.72852 222.65 10.373C222.852 11.0111 222.999 11.7142 223.09 12.4824V13.0391C222.999 13.7878 222.852 14.4746 222.65 15.0996C222.449 15.7246 222.178 16.2715 221.84 16.7402C221.508 17.2025 221.104 17.5605 220.629 17.8145C220.154 18.0684 219.597 18.1953 218.959 18.1953C218.314 18.1953 217.735 18.0618 217.221 17.7949C216.713 17.528 216.28 17.1536 215.922 16.6719C215.57 16.1901 215.3 15.6237 215.111 14.9727C214.929 14.3216 214.838 13.612 214.838 12.8438ZM217.426 12.6387V12.8438C217.426 13.2995 217.465 13.7259 217.543 14.123C217.621 14.5202 217.748 14.8717 217.924 15.1777C218.1 15.4772 218.324 15.7116 218.598 15.8809C218.878 16.0501 219.216 16.1348 219.613 16.1348C220.121 16.1348 220.538 16.0241 220.863 15.8027C221.195 15.5749 221.452 15.2656 221.635 14.875C221.817 14.4779 221.934 14.0319 221.986 13.5371V12.0039C221.96 11.6133 221.892 11.252 221.781 10.9199C221.677 10.5879 221.527 10.3014 221.332 10.0605C221.143 9.81966 220.909 9.63086 220.629 9.49414C220.349 9.35742 220.017 9.28906 219.633 9.28906C219.236 9.28906 218.897 9.37695 218.617 9.55273C218.337 9.72201 218.109 9.95964 217.934 10.2656C217.758 10.5716 217.628 10.9264 217.543 11.3301C217.465 11.7337 217.426 12.1699 217.426 12.6387ZM231.303 18.1953C230.502 18.1953 229.783 18.0651 229.145 17.8047C228.507 17.5443 227.963 17.1829 227.514 16.7207C227.071 16.252 226.729 15.7083 226.488 15.0898C226.254 14.4648 226.137 13.7943 226.137 13.0781V12.6875C226.137 11.8737 226.254 11.1348 226.488 10.4707C226.723 9.80013 227.055 9.22396 227.484 8.74219C227.914 8.26042 228.428 7.88932 229.027 7.62891C229.626 7.36849 230.287 7.23828 231.01 7.23828C231.758 7.23828 232.419 7.36523 232.992 7.61914C233.565 7.86654 234.044 8.2181 234.428 8.67383C234.812 9.12956 235.102 9.67643 235.297 10.3145C235.492 10.946 235.59 11.6458 235.59 12.4141V13.498H227.309V11.7207H233.051V11.5254C233.038 11.1152 232.96 10.7409 232.816 10.4023C232.673 10.0573 232.452 9.78385 232.152 9.58203C231.853 9.3737 231.465 9.26953 230.99 9.26953C230.606 9.26953 230.271 9.35417 229.984 9.52344C229.704 9.6862 229.47 9.92057 229.281 10.2266C229.099 10.526 228.962 10.8841 228.871 11.3008C228.78 11.7174 228.734 12.1797 228.734 12.6875V13.0781C228.734 13.5208 228.793 13.931 228.91 14.3086C229.034 14.6862 229.213 15.015 229.447 15.2949C229.688 15.5684 229.975 15.7832 230.307 15.9395C230.645 16.0892 231.029 16.1641 231.459 16.1641C231.999 16.1641 232.488 16.0599 232.924 15.8516C233.367 15.6367 233.751 15.321 234.076 14.9043L235.375 16.252C235.154 16.5775 234.854 16.89 234.477 17.1895C234.105 17.4889 233.656 17.7331 233.129 17.9219C232.602 18.1042 231.993 18.1953 231.303 18.1953ZM239.896 9.5918V18H237.318V7.43359H239.76L239.896 9.5918ZM243.109 7.36523L243.07 9.76758C242.927 9.74154 242.764 9.72201 242.582 9.70898C242.406 9.69596 242.24 9.68945 242.084 9.68945C241.687 9.68945 241.339 9.74479 241.039 9.85547C240.74 9.95964 240.489 10.1126 240.287 10.3145C240.092 10.5163 239.942 10.7637 239.838 11.0566C239.734 11.3431 239.675 11.6686 239.662 12.0332L239.105 11.9648C239.105 11.2943 239.174 10.6725 239.311 10.0996C239.447 9.52669 239.646 9.02539 239.906 8.5957C240.167 8.16602 240.492 7.83398 240.883 7.59961C241.28 7.35872 241.736 7.23828 242.25 7.23828C242.393 7.23828 242.546 7.2513 242.709 7.27734C242.878 7.29688 243.012 7.32617 243.109 7.36523Z" fill="white"/>
<path d="M21.4442 2.00363C24.8922 1.8874 27.7884 4.57848 27.9231 8.02795L27.9237 8.05699V15.943L27.9231 15.972C27.7884 19.4219 24.8916 22.1132 21.4431 21.9963H6.4806C3.0591 22.1123 0.180654 19.4639 0.00423561 16.0529L0.000564747 15.972C0.000187401 15.9623 1.31164e-07 15.9527 0 15.943V8.05699L0.000564747 8.02795L0.00423561 7.94711C0.180642 4.53652 3.05849 1.88831 6.47951 2.00363H21.4442ZM26.4366 8.07345C26.328 5.46393 24.1478 3.42647 21.5427 3.48835L21.4811 3.4902C21.472 3.49053 21.463 3.49069 21.454 3.49069H6.46971L6.44264 3.4902C3.81044 3.39439 1.59653 5.44337 1.48706 8.07345V15.9265C1.59653 18.5567 3.81043 20.6056 6.44264 20.5098L6.46971 20.5093H21.454L21.4811 20.5098L21.5428 20.5116C24.1478 20.5735 26.328 18.5361 26.4366 15.9265V8.07345Z" fill="white"/>
<path d="M10.5746 9.02462C10.5747 8.20316 11.1654 7.65918 11.7529 7.43506C12.3475 7.20824 13.106 7.22735 13.7294 7.65091H13.7294L17.8897 10.478C18.3739 10.7724 18.6705 11.2984 18.6705 11.8665C18.6705 12.4282 18.3806 12.9489 17.9058 13.2451L13.7551 16.3309C13.7465 16.3373 13.7378 16.3435 13.7289 16.3495C13.1056 16.7723 12.3474 16.7925 11.7521 16.5651C11.1629 16.34 10.5746 15.7945 10.5746 14.9728V9.02462ZM12.0617 14.9728C12.0617 14.9918 12.0736 15.096 12.2828 15.1759C12.482 15.252 12.7152 15.2346 12.8843 15.1252L17.0462 12.0312L17.0629 12.0191C17.0798 12.0073 17.0972 11.9961 17.1151 11.9857L17.1228 11.9808C17.1605 11.9554 17.1834 11.9127 17.1834 11.8665C17.1834 11.8206 17.1605 11.7777 17.1226 11.7521L17.1149 11.7472C17.1076 11.743 17.1003 11.7386 17.0932 11.734L17.0719 11.7201L12.8936 8.88089C12.7252 8.76647 12.487 8.7466 12.2829 8.82446C12.0718 8.90499 12.0617 9.00932 12.0617 9.02462V14.9728Z" fill="white"/>
</svg>
