<svg width="282" height="24" viewBox="0 0 282 24" fill="none" xmlns="http://www.w3.org/2000/svg">
<path d="M48.0176 4.78125L51.1426 11.4121L54.2871 4.78125H57.2363L52.5098 13.7949V19H49.7852V13.7949L45.0488 4.78125H48.0176ZM64.9414 4.78125V19H62.2656V4.78125H64.9414ZM69.3555 4.78125V6.90039H57.9004V4.78125H69.3555ZM81.25 4.78125V19H78.5742V4.78125H81.25ZM85.6641 4.78125V6.90039H74.209V4.78125H85.6641ZM89.7852 4V19H87.1973V4H89.7852ZM89.375 13.3359H88.6133C88.6133 12.6003 88.7109 11.9232 88.9062 11.3047C89.1016 10.6862 89.3783 10.1491 89.7363 9.69336C90.0944 9.23112 90.5208 8.87305 91.0156 8.61914C91.5169 8.36523 92.0703 8.23828 92.6758 8.23828C93.1966 8.23828 93.6686 8.31315 94.0918 8.46289C94.5215 8.60612 94.8893 8.83724 95.1953 9.15625C95.5013 9.47526 95.7357 9.89193 95.8984 10.4062C96.0677 10.9141 96.1523 11.5326 96.1523 12.2617V19H93.5547V12.2422C93.5547 11.7539 93.4831 11.3698 93.3398 11.0898C93.1966 10.8034 92.9915 10.5983 92.7246 10.4746C92.4642 10.3509 92.1419 10.2891 91.7578 10.2891C91.3411 10.2891 90.9831 10.3704 90.6836 10.5332C90.3841 10.6895 90.1367 10.9076 89.9414 11.1875C89.7526 11.4674 89.6094 11.7897 89.5117 12.1543C89.4206 12.5189 89.375 12.9128 89.375 13.3359ZM104.717 16.4902V8.43359H107.314V19H104.873L104.717 16.4902ZM105.049 14.3027L105.85 14.2832C105.85 14.9928 105.771 15.6471 105.615 16.2461C105.459 16.8451 105.215 17.3659 104.883 17.8086C104.557 18.2448 104.144 18.5866 103.643 18.834C103.141 19.0749 102.549 19.1953 101.865 19.1953C101.344 19.1953 100.869 19.1237 100.439 18.9805C100.01 18.8307 99.6387 18.5996 99.3262 18.2871C99.0202 17.9681 98.7826 17.5612 98.6133 17.0664C98.444 16.5651 98.3594 15.9629 98.3594 15.2598V8.43359H100.938V15.2793C100.938 15.6309 100.977 15.9238 101.055 16.1582C101.139 16.3926 101.253 16.5846 101.396 16.7344C101.546 16.8776 101.719 16.9818 101.914 17.0469C102.116 17.1055 102.331 17.1348 102.559 17.1348C103.184 17.1348 103.675 17.0111 104.033 16.7637C104.398 16.5098 104.658 16.1712 104.814 15.748C104.971 15.3184 105.049 14.8366 105.049 14.3027ZM112.168 10.6016V19H109.59V8.43359H112.021L112.168 10.6016ZM111.787 13.3359H110.996C110.996 12.6003 111.084 11.9232 111.26 11.3047C111.442 10.6862 111.709 10.1491 112.061 9.69336C112.412 9.23112 112.845 8.87305 113.359 8.61914C113.88 8.36523 114.482 8.23828 115.166 8.23828C115.641 8.23828 116.077 8.3099 116.475 8.45312C116.872 8.58984 117.214 8.80794 117.5 9.10742C117.793 9.40039 118.018 9.78451 118.174 10.2598C118.33 10.7285 118.408 11.2917 118.408 11.9492V19H115.83V12.2129C115.83 11.7181 115.758 11.3307 115.615 11.0508C115.479 10.7708 115.28 10.5755 115.02 10.4648C114.759 10.3477 114.447 10.2891 114.082 10.2891C113.678 10.2891 113.33 10.3704 113.037 10.5332C112.751 10.6895 112.513 10.9076 112.324 11.1875C112.142 11.4674 112.005 11.7897 111.914 12.1543C111.829 12.5189 111.787 12.9128 111.787 13.3359ZM118.213 12.8574L117.148 13.0527C117.155 12.3887 117.246 11.7669 117.422 11.1875C117.598 10.6016 117.855 10.0905 118.193 9.6543C118.538 9.21159 118.965 8.86654 119.473 8.61914C119.987 8.36523 120.579 8.23828 121.25 8.23828C121.771 8.23828 122.24 8.31315 122.656 8.46289C123.079 8.60612 123.441 8.83724 123.74 9.15625C124.04 9.46875 124.268 9.87565 124.424 10.377C124.587 10.8783 124.668 11.4902 124.668 12.2129V19H122.07V12.2031C122.07 11.6888 121.999 11.2949 121.855 11.0215C121.719 10.748 121.52 10.5592 121.26 10.4551C120.999 10.3444 120.693 10.2891 120.342 10.2891C119.984 10.2891 119.671 10.3574 119.404 10.4941C119.144 10.6243 118.923 10.8066 118.74 11.041C118.564 11.2754 118.431 11.5488 118.34 11.8613C118.255 12.1673 118.213 12.4993 118.213 12.8574ZM126.973 4H129.561V16.666L129.307 19H126.973V4ZM136.357 13.6094V13.8145C136.357 14.6022 136.27 15.3249 136.094 15.9824C135.924 16.64 135.667 17.2096 135.322 17.6914C134.977 18.1667 134.548 18.5378 134.033 18.8047C133.525 19.0651 132.93 19.1953 132.246 19.1953C131.595 19.1953 131.029 19.0684 130.547 18.8145C130.072 18.5605 129.671 18.2025 129.346 17.7402C129.02 17.2715 128.76 16.7214 128.564 16.0898C128.369 15.4518 128.223 14.7552 128.125 14V13.4434C128.223 12.6816 128.369 11.985 128.564 11.3535C128.76 10.722 129.02 10.1719 129.346 9.70312C129.671 9.23438 130.072 8.87305 130.547 8.61914C131.022 8.36523 131.582 8.23828 132.227 8.23828C132.917 8.23828 133.519 8.37174 134.033 8.63867C134.554 8.89909 134.984 9.27018 135.322 9.75195C135.667 10.2272 135.924 10.7936 136.094 11.4512C136.27 12.1022 136.357 12.8216 136.357 13.6094ZM133.77 13.8145V13.6094C133.77 13.1602 133.734 12.737 133.662 12.3398C133.59 11.9362 133.473 11.5814 133.311 11.2754C133.148 10.9694 132.926 10.7285 132.646 10.5527C132.367 10.377 132.015 10.2891 131.592 10.2891C131.188 10.2891 130.843 10.3574 130.557 10.4941C130.277 10.6309 130.042 10.8197 129.854 11.0605C129.671 11.3014 129.528 11.5846 129.424 11.9102C129.326 12.2357 129.261 12.5872 129.229 12.9648V14.4883C129.274 14.9896 129.382 15.4421 129.551 15.8457C129.72 16.2428 129.971 16.5586 130.303 16.793C130.641 17.0273 131.077 17.1445 131.611 17.1445C132.028 17.1445 132.376 17.0632 132.656 16.9004C132.936 16.7311 133.158 16.4967 133.32 16.1973C133.483 15.8913 133.597 15.5365 133.662 15.1328C133.734 14.7292 133.77 14.2897 133.77 13.8145ZM140.762 10.6895V19H138.184V8.43359H140.605L140.762 10.6895ZM140.352 13.3359H139.59C139.596 12.5677 139.701 11.8711 139.902 11.2461C140.104 10.6211 140.387 10.084 140.752 9.63477C141.123 9.18555 141.562 8.84049 142.07 8.59961C142.578 8.35872 143.145 8.23828 143.77 8.23828C144.277 8.23828 144.736 8.3099 145.146 8.45312C145.557 8.59635 145.908 8.82422 146.201 9.13672C146.501 9.44922 146.729 9.85938 146.885 10.3672C147.048 10.8685 147.129 11.487 147.129 12.2227V19H144.531V12.2031C144.531 11.7214 144.46 11.3405 144.316 11.0605C144.18 10.7806 143.978 10.582 143.711 10.4648C143.451 10.3477 143.128 10.2891 142.744 10.2891C142.347 10.2891 141.999 10.3704 141.699 10.5332C141.406 10.6895 141.159 10.9076 140.957 11.1875C140.762 11.4674 140.612 11.7897 140.508 12.1543C140.404 12.5189 140.352 12.9128 140.352 13.3359ZM155.225 16.7539V11.8809C155.225 11.5228 155.163 11.2135 155.039 10.9531C154.915 10.6927 154.727 10.4909 154.473 10.3477C154.219 10.2044 153.896 10.1328 153.506 10.1328C153.161 10.1328 152.858 10.1914 152.598 10.3086C152.344 10.4258 152.148 10.5918 152.012 10.8066C151.875 11.015 151.807 11.2559 151.807 11.5293H149.219C149.219 11.0931 149.323 10.6797 149.531 10.2891C149.74 9.89193 150.036 9.54036 150.42 9.23438C150.811 8.92188 151.276 8.67773 151.816 8.50195C152.363 8.32617 152.975 8.23828 153.652 8.23828C154.453 8.23828 155.166 8.375 155.791 8.64844C156.423 8.91536 156.917 9.31901 157.275 9.85938C157.64 10.3997 157.822 11.0801 157.822 11.9004V16.5098C157.822 17.0371 157.855 17.4896 157.92 17.8672C157.992 18.2383 158.096 18.5605 158.232 18.834V19H155.605C155.482 18.7331 155.387 18.3945 155.322 17.9844C155.257 17.5677 155.225 17.1576 155.225 16.7539ZM155.586 12.5645L155.605 14.0977H153.975C153.571 14.0977 153.216 14.14 152.91 14.2246C152.604 14.3027 152.354 14.4199 152.158 14.5762C151.963 14.7259 151.816 14.9082 151.719 15.123C151.621 15.3314 151.572 15.569 151.572 15.8359C151.572 16.0964 151.631 16.3307 151.748 16.5391C151.872 16.7474 152.048 16.9134 152.275 17.0371C152.51 17.1543 152.783 17.2129 153.096 17.2129C153.551 17.2129 153.949 17.1217 154.287 16.9395C154.626 16.7507 154.889 16.5228 155.078 16.2559C155.267 15.9889 155.368 15.735 155.381 15.4941L156.123 16.6074C156.032 16.8743 155.895 17.1576 155.713 17.457C155.531 17.7565 155.296 18.0365 155.01 18.2969C154.723 18.5573 154.378 18.7721 153.975 18.9414C153.571 19.1107 153.102 19.1953 152.568 19.1953C151.885 19.1953 151.273 19.0586 150.732 18.7852C150.192 18.5117 149.766 18.1374 149.453 17.6621C149.141 17.1868 148.984 16.6465 148.984 16.041C148.984 15.4811 149.089 14.9863 149.297 14.5566C149.505 14.127 149.814 13.7656 150.225 13.4727C150.635 13.1732 151.143 12.9486 151.748 12.7988C152.36 12.6426 153.06 12.5645 153.848 12.5645H155.586ZM162.881 8.43359V19H160.293V8.43359H162.881ZM160.117 5.66992C160.117 5.28581 160.247 4.9668 160.508 4.71289C160.775 4.45898 161.133 4.33203 161.582 4.33203C162.031 4.33203 162.386 4.45898 162.646 4.71289C162.913 4.9668 163.047 5.28581 163.047 5.66992C163.047 6.04753 162.913 6.36328 162.646 6.61719C162.386 6.87109 162.031 6.99805 161.582 6.99805C161.133 6.99805 160.775 6.87109 160.508 6.61719C160.247 6.36328 160.117 6.04753 160.117 5.66992ZM168.076 4V19H165.488V4H168.076ZM179.961 19H176.895L176.914 16.8906H179.961C180.788 16.8906 181.481 16.7083 182.041 16.3438C182.601 15.9727 183.024 15.4421 183.311 14.752C183.597 14.0553 183.74 13.222 183.74 12.252V11.5195C183.74 10.7708 183.659 10.11 183.496 9.53711C183.333 8.96419 183.092 8.48242 182.773 8.0918C182.461 7.70117 182.074 7.40495 181.611 7.20312C181.149 7.0013 180.618 6.90039 180.02 6.90039H176.836V4.78125H180.02C180.97 4.78125 181.836 4.94076 182.617 5.25977C183.405 5.57878 184.085 6.03776 184.658 6.63672C185.238 7.22917 185.68 7.9388 185.986 8.76562C186.299 9.59245 186.455 10.5169 186.455 11.5391V12.252C186.455 13.2676 186.299 14.1921 185.986 15.0254C185.68 15.8522 185.238 16.5618 184.658 17.1543C184.085 17.7467 183.402 18.2025 182.607 18.5215C181.813 18.8405 180.931 19 179.961 19ZM178.398 4.78125V19H175.713V4.78125H178.398ZM188.086 13.8242V13.6191C188.086 12.8444 188.197 12.1315 188.418 11.4805C188.639 10.8229 188.962 10.2533 189.385 9.77148C189.808 9.28971 190.326 8.91536 190.938 8.64844C191.549 8.375 192.246 8.23828 193.027 8.23828C193.822 8.23828 194.525 8.375 195.137 8.64844C195.755 8.91536 196.276 9.28971 196.699 9.77148C197.122 10.2533 197.445 10.8229 197.666 11.4805C197.887 12.1315 197.998 12.8444 197.998 13.6191V13.8242C197.998 14.5924 197.887 15.3053 197.666 15.9629C197.445 16.6139 197.122 17.1836 196.699 17.6719C196.276 18.1536 195.758 18.528 195.146 18.7949C194.535 19.0618 193.835 19.1953 193.047 19.1953C192.266 19.1953 191.566 19.0618 190.947 18.7949C190.329 18.528 189.808 18.1536 189.385 17.6719C188.962 17.1836 188.639 16.6139 188.418 15.9629C188.197 15.3053 188.086 14.5924 188.086 13.8242ZM190.664 13.6191V13.8242C190.664 14.2865 190.71 14.7194 190.801 15.123C190.892 15.5267 191.032 15.8815 191.221 16.1875C191.41 16.4935 191.654 16.7344 191.953 16.9102C192.259 17.0794 192.624 17.1641 193.047 17.1641C193.464 17.1641 193.822 17.0794 194.121 16.9102C194.421 16.7344 194.665 16.4935 194.854 16.1875C195.049 15.8815 195.192 15.5267 195.283 15.123C195.374 14.7194 195.42 14.2865 195.42 13.8242V13.6191C195.42 13.1634 195.374 12.737 195.283 12.3398C195.192 11.9362 195.049 11.5814 194.854 11.2754C194.665 10.9629 194.417 10.7188 194.111 10.543C193.812 10.3607 193.451 10.2695 193.027 10.2695C192.611 10.2695 192.253 10.3607 191.953 10.543C191.654 10.7188 191.41 10.9629 191.221 11.2754C191.032 11.5814 190.892 11.9362 190.801 12.3398C190.71 12.737 190.664 13.1634 190.664 13.6191ZM202.812 16.4609L205.127 8.43359H206.768L206.279 11.207L203.945 19H202.529L202.812 16.4609ZM201.533 8.43359L203.271 16.4805L203.428 19H201.797L199.023 8.43359H201.533ZM208.916 16.3633L210.615 8.43359H213.115L210.361 19H208.73L208.916 16.3633ZM207.021 8.43359L209.316 16.3828L209.619 19H208.203L205.85 11.207L205.371 8.43359H207.021ZM217.168 10.6895V19H214.59V8.43359H217.012L217.168 10.6895ZM216.758 13.3359H215.996C216.003 12.5677 216.107 11.8711 216.309 11.2461C216.51 10.6211 216.794 10.084 217.158 9.63477C217.529 9.18555 217.969 8.84049 218.477 8.59961C218.984 8.35872 219.551 8.23828 220.176 8.23828C220.684 8.23828 221.143 8.3099 221.553 8.45312C221.963 8.59635 222.314 8.82422 222.607 9.13672C222.907 9.44922 223.135 9.85938 223.291 10.3672C223.454 10.8685 223.535 11.487 223.535 12.2227V19H220.938V12.2031C220.938 11.7214 220.866 11.3405 220.723 11.0605C220.586 10.7806 220.384 10.582 220.117 10.4648C219.857 10.3477 219.535 10.2891 219.15 10.2891C218.753 10.2891 218.405 10.3704 218.105 10.5332C217.812 10.6895 217.565 10.9076 217.363 11.1875C217.168 11.4674 217.018 11.7897 216.914 12.1543C216.81 12.5189 216.758 12.9128 216.758 13.3359ZM228.545 4V19H225.957V4H228.545ZM230.547 13.8242V13.6191C230.547 12.8444 230.658 12.1315 230.879 11.4805C231.1 10.8229 231.423 10.2533 231.846 9.77148C232.269 9.28971 232.786 8.91536 233.398 8.64844C234.01 8.375 234.707 8.23828 235.488 8.23828C236.283 8.23828 236.986 8.375 237.598 8.64844C238.216 8.91536 238.737 9.28971 239.16 9.77148C239.583 10.2533 239.906 10.8229 240.127 11.4805C240.348 12.1315 240.459 12.8444 240.459 13.6191V13.8242C240.459 14.5924 240.348 15.3053 240.127 15.9629C239.906 16.6139 239.583 17.1836 239.16 17.6719C238.737 18.1536 238.219 18.528 237.607 18.7949C236.995 19.0618 236.296 19.1953 235.508 19.1953C234.727 19.1953 234.027 19.0618 233.408 18.7949C232.79 18.528 232.269 18.1536 231.846 17.6719C231.423 17.1836 231.1 16.6139 230.879 15.9629C230.658 15.3053 230.547 14.5924 230.547 13.8242ZM233.125 13.6191V13.8242C233.125 14.2865 233.171 14.7194 233.262 15.123C233.353 15.5267 233.493 15.8815 233.682 16.1875C233.87 16.4935 234.115 16.7344 234.414 16.9102C234.72 17.0794 235.085 17.1641 235.508 17.1641C235.924 17.1641 236.283 17.0794 236.582 16.9102C236.882 16.7344 237.126 16.4935 237.314 16.1875C237.51 15.8815 237.653 15.5267 237.744 15.123C237.835 14.7194 237.881 14.2865 237.881 13.8242V13.6191C237.881 13.1634 237.835 12.737 237.744 12.3398C237.653 11.9362 237.51 11.5814 237.314 11.2754C237.126 10.9629 236.878 10.7188 236.572 10.543C236.273 10.3607 235.911 10.2695 235.488 10.2695C235.072 10.2695 234.714 10.3607 234.414 10.543C234.115 10.7188 233.87 10.9629 233.682 11.2754C233.493 11.5814 233.353 11.9362 233.262 12.3398C233.171 12.737 233.125 13.1634 233.125 13.6191ZM248.154 16.7539V11.8809C248.154 11.5228 248.092 11.2135 247.969 10.9531C247.845 10.6927 247.656 10.4909 247.402 10.3477C247.148 10.2044 246.826 10.1328 246.436 10.1328C246.09 10.1328 245.788 10.1914 245.527 10.3086C245.273 10.4258 245.078 10.5918 244.941 10.8066C244.805 11.015 244.736 11.2559 244.736 11.5293H242.148C242.148 11.0931 242.253 10.6797 242.461 10.2891C242.669 9.89193 242.965 9.54036 243.35 9.23438C243.74 8.92188 244.206 8.67773 244.746 8.50195C245.293 8.32617 245.905 8.23828 246.582 8.23828C247.383 8.23828 248.096 8.375 248.721 8.64844C249.352 8.91536 249.847 9.31901 250.205 9.85938C250.57 10.3997 250.752 11.0801 250.752 11.9004V16.5098C250.752 17.0371 250.785 17.4896 250.85 17.8672C250.921 18.2383 251.025 18.5605 251.162 18.834V19H248.535C248.411 18.7331 248.317 18.3945 248.252 17.9844C248.187 17.5677 248.154 17.1576 248.154 16.7539ZM248.516 12.5645L248.535 14.0977H246.904C246.501 14.0977 246.146 14.14 245.84 14.2246C245.534 14.3027 245.283 14.4199 245.088 14.5762C244.893 14.7259 244.746 14.9082 244.648 15.123C244.551 15.3314 244.502 15.569 244.502 15.8359C244.502 16.0964 244.561 16.3307 244.678 16.5391C244.801 16.7474 244.977 16.9134 245.205 17.0371C245.439 17.1543 245.713 17.2129 246.025 17.2129C246.481 17.2129 246.878 17.1217 247.217 16.9395C247.555 16.7507 247.819 16.5228 248.008 16.2559C248.197 15.9889 248.298 15.735 248.311 15.4941L249.053 16.6074C248.962 16.8743 248.825 17.1576 248.643 17.457C248.46 17.7565 248.226 18.0365 247.939 18.2969C247.653 18.5573 247.308 18.7721 246.904 18.9414C246.501 19.1107 246.032 19.1953 245.498 19.1953C244.814 19.1953 244.202 19.0586 243.662 18.7852C243.122 18.5117 242.695 18.1374 242.383 17.6621C242.07 17.1868 241.914 16.6465 241.914 16.041C241.914 15.4811 242.018 14.9863 242.227 14.5566C242.435 14.127 242.744 13.7656 243.154 13.4727C243.564 13.1732 244.072 12.9486 244.678 12.7988C245.29 12.6426 245.99 12.5645 246.777 12.5645H248.516ZM259.414 16.7539V4H262.012V19H259.668L259.414 16.7539ZM252.627 13.8438V13.6387C252.627 12.8314 252.718 12.099 252.9 11.4414C253.089 10.7773 253.363 10.2077 253.721 9.73242C254.079 9.25716 254.512 8.88932 255.02 8.62891C255.534 8.36849 256.117 8.23828 256.768 8.23828C257.399 8.23828 257.949 8.36523 258.418 8.61914C258.893 8.87305 259.297 9.23438 259.629 9.70312C259.967 10.1719 260.238 10.7285 260.439 11.373C260.641 12.0111 260.788 12.7142 260.879 13.4824V14.0391C260.788 14.7878 260.641 15.4746 260.439 16.0996C260.238 16.7246 259.967 17.2715 259.629 17.7402C259.297 18.2025 258.893 18.5605 258.418 18.8145C257.943 19.0684 257.386 19.1953 256.748 19.1953C256.104 19.1953 255.524 19.0618 255.01 18.7949C254.502 18.528 254.069 18.1536 253.711 17.6719C253.359 17.1901 253.089 16.6237 252.9 15.9727C252.718 15.3216 252.627 14.612 252.627 13.8438ZM255.215 13.6387V13.8438C255.215 14.2995 255.254 14.7259 255.332 15.123C255.41 15.5202 255.537 15.8717 255.713 16.1777C255.889 16.4772 256.113 16.7116 256.387 16.8809C256.667 17.0501 257.005 17.1348 257.402 17.1348C257.91 17.1348 258.327 17.0241 258.652 16.8027C258.984 16.5749 259.242 16.2656 259.424 15.875C259.606 15.4779 259.723 15.0319 259.775 14.5371V13.0039C259.749 12.6133 259.681 12.252 259.57 11.9199C259.466 11.5879 259.316 11.3014 259.121 11.0605C258.932 10.8197 258.698 10.6309 258.418 10.4941C258.138 10.3574 257.806 10.2891 257.422 10.2891C257.025 10.2891 256.686 10.377 256.406 10.5527C256.126 10.722 255.898 10.9596 255.723 11.2656C255.547 11.5716 255.417 11.9264 255.332 12.3301C255.254 12.7337 255.215 13.1699 255.215 13.6387ZM269.092 19.1953C268.291 19.1953 267.572 19.0651 266.934 18.8047C266.296 18.5443 265.752 18.1829 265.303 17.7207C264.86 17.252 264.518 16.7083 264.277 16.0898C264.043 15.4648 263.926 14.7943 263.926 14.0781V13.6875C263.926 12.8737 264.043 12.1348 264.277 11.4707C264.512 10.8001 264.844 10.224 265.273 9.74219C265.703 9.26042 266.217 8.88932 266.816 8.62891C267.415 8.36849 268.076 8.23828 268.799 8.23828C269.548 8.23828 270.208 8.36523 270.781 8.61914C271.354 8.86654 271.833 9.2181 272.217 9.67383C272.601 10.1296 272.891 10.6764 273.086 11.3145C273.281 11.946 273.379 12.6458 273.379 13.4141V14.498H265.098V12.7207H270.84V12.5254C270.827 12.1152 270.749 11.7409 270.605 11.4023C270.462 11.0573 270.241 10.7839 269.941 10.582C269.642 10.3737 269.255 10.2695 268.779 10.2695C268.395 10.2695 268.06 10.3542 267.773 10.5234C267.493 10.6862 267.259 10.9206 267.07 11.2266C266.888 11.526 266.751 11.8841 266.66 12.3008C266.569 12.7174 266.523 13.1797 266.523 13.6875V14.0781C266.523 14.5208 266.582 14.931 266.699 15.3086C266.823 15.6862 267.002 16.015 267.236 16.2949C267.477 16.5684 267.764 16.7832 268.096 16.9395C268.434 17.0892 268.818 17.1641 269.248 17.1641C269.788 17.1641 270.277 17.0599 270.713 16.8516C271.156 16.6367 271.54 16.321 271.865 15.9043L273.164 17.252C272.943 17.5775 272.643 17.89 272.266 18.1895C271.895 18.4889 271.445 18.7331 270.918 18.9219C270.391 19.1042 269.782 19.1953 269.092 19.1953ZM277.686 10.5918V19H275.107V8.43359H277.549L277.686 10.5918ZM280.898 8.36523L280.859 10.7676C280.716 10.7415 280.553 10.722 280.371 10.709C280.195 10.696 280.029 10.6895 279.873 10.6895C279.476 10.6895 279.128 10.7448 278.828 10.8555C278.529 10.9596 278.278 11.1126 278.076 11.3145C277.881 11.5163 277.731 11.7637 277.627 12.0566C277.523 12.3431 277.464 12.6686 277.451 13.0332L276.895 12.9648C276.895 12.2943 276.963 11.6725 277.1 11.0996C277.236 10.5267 277.435 10.0254 277.695 9.5957C277.956 9.16602 278.281 8.83398 278.672 8.59961C279.069 8.35872 279.525 8.23828 280.039 8.23828C280.182 8.23828 280.335 8.2513 280.498 8.27734C280.667 8.29688 280.801 8.32617 280.898 8.36523Z" fill="black"/>
<path d="M25.733 0.0043529C29.8707 -0.13512 33.3461 3.09418 33.5078 7.23354L33.5084 7.26839V16.7316L33.5078 16.7664C33.3461 20.9063 29.87 24.1358 25.7317 23.9956H7.77672C3.67092 24.1347 0.216785 20.9567 0.00508273 16.8634L0.000677697 16.7664C0.000224881 16.7548 1.57396e-07 16.7432 0 16.7316V7.26839L0.000677697 7.23354L0.00508273 7.13653C0.216771 3.04383 3.67018 -0.134029 7.77541 0.0043529H25.733ZM31.724 7.28814C31.5936 4.15672 28.9773 1.71177 25.8513 1.78602L25.7773 1.78825C25.7665 1.78864 25.7556 1.78883 25.7448 1.78883H7.76365L7.73117 1.78825C4.57253 1.67327 1.91584 4.13205 1.78447 7.28814V16.7118C1.91583 19.868 4.57252 22.3267 7.73117 22.2117L7.76365 22.2111H25.7448L25.7773 22.2117L25.8513 22.2139C28.9774 22.2882 31.5936 19.8433 31.724 16.7118V7.28814Z" fill="black"/>
<path d="M12.6896 8.42951C12.6896 7.44376 13.3985 6.79098 14.1035 6.52203C14.817 6.24985 15.7272 6.27279 16.4753 6.78106H16.4753L21.4677 10.1735C22.0487 10.5268 22.4046 11.1581 22.4046 11.8398C22.4046 12.5138 22.0567 13.1386 21.487 13.4941L16.5061 17.197C16.4958 17.2047 16.4853 17.2122 16.4747 17.2194C15.7267 17.7268 14.8169 17.751 14.1025 17.4781C13.3955 17.208 12.6896 16.5533 12.6896 15.5674V8.42951ZM14.4741 15.5674C14.4741 15.5902 14.4883 15.7152 14.7393 15.8111C14.9784 15.9024 15.2583 15.8815 15.4612 15.7502L20.4555 12.0374L20.4756 12.0229C20.4958 12.0087 20.5167 11.9953 20.5381 11.9828L20.5474 11.977C20.5926 11.9464 20.6201 11.8952 20.6201 11.8398C20.6201 11.7846 20.5926 11.7333 20.5471 11.7025L20.5379 11.6966C20.5291 11.6915 20.5204 11.6862 20.5118 11.6808L20.4863 11.6641L15.4724 8.25704C15.2703 8.11973 14.9845 8.09588 14.7395 8.18931C14.4862 8.28596 14.4741 8.41115 14.4741 8.42951V15.5674Z" fill="black"/>
</svg>
